<?xml version="1.0" encoding="UTF-8"?>
<svg width="44px" height="44px" viewBox="0 0 44 44" version="1.1" xmlns="http://www.w3.org/2000/svg" xmlns:xlink="http://www.w3.org/1999/xlink">
    <!-- Generator: Sketch 39.1 (31720) - http://www.bohemiancoding.com/sketch -->
    <title>settings</title>
    <desc>Created with Sketch.</desc>
    <defs></defs>
    <g id="Page-1" stroke="none" stroke-width="1" fill="none" fill-rule="evenodd">
        <g id="Artboard-6-Copy" transform="translate(-13.000000, -7.000000)" stroke-width="0.5" stroke="#979797" fill="#9B9B9B">
            <g id="settings" transform="translate(14.000000, 8.000000)">
                <g id="Capa_1">
                    <g id="Group">
                        <path d="M39.8377778,16.3333333 L35.9084444,16.3333333 C35.2768889,16.3333333 34.7565556,15.9856667 34.5146667,15.4023333 C34.2727778,14.819 34.3956667,14.2045556 34.8413333,13.7581111 L37.6195556,10.9806667 C38.0278889,10.5723333 38.2526667,10.0286667 38.2526667,9.45155556 C38.2526667,8.87366667 38.0278889,8.33077778 37.6195556,7.92166667 L34.0783333,4.38044444 C33.2616667,3.56377778 31.8375556,3.56222222 31.0193333,4.38044444 L28.2418889,7.15788889 C27.7954444,7.60355556 27.1794444,7.728 26.5976667,7.48533333 C26.0143333,7.24344444 25.6666667,6.72311111 25.6666667,6.09155556 L25.6666667,2.16222222 C25.6666667,0.969888889 24.6967778,0 23.5044444,0 L18.4955556,0 C17.3032222,0 16.3333333,0.969888889 16.3333333,2.16222222 L16.3333333,6.09155556 C16.3333333,6.72311111 15.9856667,7.24344444 15.4023333,7.48533333 C14.8205556,7.72877778 14.2045556,7.60355556 13.7581111,7.15788889 L10.9806667,4.38044444 C10.1624444,3.56222222 8.73833333,3.56377778 7.92166667,4.38044444 L4.38044444,7.92166667 C3.97211111,8.33 3.74733333,8.87366667 3.74733333,9.45155556 C3.74733333,10.0286667 3.97211111,10.5715556 4.38044444,10.9806667 L7.15866667,13.7581111 C7.60433333,14.2045556 7.72644444,14.819 7.48533333,15.4023333 C7.24422222,15.9856667 6.72311111,16.3333333 6.09155556,16.3333333 L2.16222222,16.3333333 C0.969888889,16.3333333 0,17.3032222 0,18.4955556 L0,23.5036667 C0,24.6967778 0.969888889,25.6666667 2.16222222,25.6666667 L6.09155556,25.6666667 C6.72311111,25.6666667 7.24344444,26.0143333 7.48533333,26.5976667 C7.72722222,27.181 7.60433333,27.7954444 7.15866667,28.2418889 L4.38044444,31.0193333 C3.97211111,31.4276667 3.74733333,31.9713333 3.74733333,32.5484444 C3.74733333,33.1263333 3.97211111,33.6692222 4.38044444,34.0783333 L7.92166667,37.6195556 C8.73911111,38.437 10.1624444,38.4385556 10.9806667,37.6195556 L13.7581111,34.8413333 C14.2045556,34.3956667 14.8182222,34.2727778 15.4023333,34.5146667 C15.9856667,34.7565556 16.3333333,35.2768889 16.3333333,35.9084444 L16.3333333,39.8377778 C16.3333333,41.0301111 17.3032222,42 18.4955556,42 L23.5036667,42 C24.696,42 25.6658889,41.0301111 25.6658889,39.8377778 L25.6658889,35.9084444 C25.6658889,35.2768889 26.0135556,34.7565556 26.5968889,34.5146667 C27.181,34.272 27.7946667,34.3956667 28.2411111,34.8413333 L31.0185556,37.6195556 C31.8367778,38.4377778 33.2608889,38.4362222 34.0775556,37.6195556 L37.6187778,34.0783333 C38.0271111,33.67 38.2518889,33.1263333 38.2518889,32.5484444 C38.2518889,31.9713333 38.0271111,31.4284444 37.6187778,31.0193333 L34.8405556,28.2418889 C34.3948889,27.7954444 34.2727778,27.181 34.5138889,26.5976667 C34.755,26.0143333 35.2768889,25.6666667 35.9084444,25.6666667 L39.8377778,25.6666667 C41.0301111,25.6666667 42,24.6967778 42,23.5044444 L42,18.4955556 C42,17.3032222 41.0301111,16.3333333 39.8377778,16.3333333 L39.8377778,16.3333333 Z M40.4444444,23.5044444 C40.4444444,23.8388889 40.1722222,24.1111111 39.8377778,24.1111111 L35.9084444,24.1111111 C34.6453333,24.1111111 33.5603333,24.836 33.0773333,26.0026667 C32.5935556,27.1693333 32.8478889,28.4495556 33.7415556,29.3424444 L36.5197778,32.1198889 C36.757,32.3571111 36.757,32.7421111 36.5197778,32.9785556 L32.9785556,36.5197778 C32.7421111,36.7562222 32.3571111,36.7577778 32.1198889,36.5197778 L29.3424444,33.7415556 C28.4487778,32.8478889 27.1693333,32.5951111 26.0026667,33.0773333 C24.836,33.5603333 24.1111111,34.6453333 24.1111111,35.9084444 L24.1111111,39.8377778 C24.1111111,40.1722222 23.8388889,40.4444444 23.5044444,40.4444444 L18.4955556,40.4444444 C18.1611111,40.4444444 17.8888889,40.1722222 17.8888889,39.8377778 L17.8888889,35.9084444 C17.8888889,34.6453333 17.164,33.5603333 15.9973333,33.0773333 C15.6061111,32.9147778 15.2032222,32.8354444 14.805,32.8354444 C14.0163333,32.8354444 13.2517778,33.1465556 12.6575556,33.7407778 L9.88011111,36.519 C9.64211111,36.757 9.25711111,36.7554444 9.02144444,36.519 L5.48022222,32.9777778 C5.243,32.7405556 5.243,32.3555556 5.48022222,32.1191111 L8.25844444,29.3416667 C9.15133333,28.4487778 9.40644444,27.1685556 8.92266667,26.0018889 C8.43966667,24.836 7.35466667,24.1111111 6.09155556,24.1111111 L2.16222222,24.1111111 C1.82777778,24.1111111 1.55555556,23.8388889 1.55555556,23.5044444 L1.55555556,18.4955556 C1.55555556,18.1611111 1.82777778,17.8888889 2.16222222,17.8888889 L6.09155556,17.8888889 C7.35466667,17.8888889 8.43966667,17.164 8.92266667,15.9973333 C9.40644444,14.8306667 9.15211111,13.5504444 8.25844444,12.6575556 L5.48022222,9.88011111 C5.243,9.64288889 5.243,9.25788889 5.48022222,9.02144444 L9.02144444,5.48022222 C9.25788889,5.243 9.64288889,5.243 9.88011111,5.48022222 L12.6575556,8.25766667 C13.5496667,9.14977778 14.8291111,9.40566667 15.9973333,8.92188889 C17.164,8.43966667 17.8888889,7.35466667 17.8888889,6.09155556 L17.8888889,2.16222222 C17.8888889,1.82777778 18.1611111,1.55555556 18.4955556,1.55555556 L23.5036667,1.55555556 C23.8388889,1.55555556 24.1111111,1.82777778 24.1111111,2.16222222 L24.1111111,6.09155556 C24.1111111,7.35466667 24.836,8.43966667 26.0026667,8.92266667 C27.1708889,9.40644444 28.4495556,9.15133333 29.3424444,8.25844444 L32.1198889,5.481 C32.3578889,5.24377778 32.7428889,5.24377778 32.9785556,5.481 L36.5197778,9.02222222 C36.757,9.25944444 36.757,9.64444444 36.5197778,9.88088889 L33.7415556,12.6583333 C32.8486667,13.5512222 32.5935556,14.8314444 33.0773333,15.9981111 C33.5603333,17.1647778 34.6453333,17.8896667 35.9084444,17.8896667 L39.8377778,17.8896667 C40.1722222,17.8888889 40.4444444,18.1611111 40.4444444,18.4955556 L40.4444444,23.5044444 L40.4444444,23.5044444 Z" id="Shape"></path>
                        <path d="M21,14 C17.1398889,14 14,17.1398889 14,21 C14,24.8601111 17.1398889,28 21,28 C24.8601111,28 28,24.8601111 28,21 C28,17.1398889 24.8601111,14 21,14 L21,14 Z M21,26.4444444 C17.9985556,26.4444444 15.5555556,24.0014444 15.5555556,21 C15.5555556,17.9985556 17.9985556,15.5555556 21,15.5555556 C24.0014444,15.5555556 26.4444444,17.9985556 26.4444444,21 C26.4444444,24.0014444 24.0014444,26.4444444 21,26.4444444 L21,26.4444444 Z" id="Shape"></path>
                    </g>
                </g>
            </g>
        </g>
    </g>
</svg>