<?xml version="1.0" encoding="UTF-8"?>
<svg width="24px" height="24px" viewBox="0 0 24 24" version="1.1" xmlns="http://www.w3.org/2000/svg" xmlns:xlink="http://www.w3.org/1999/xlink">
    <!-- Generator: Sketch 39.1 (31720) - http://www.bohemiancoding.com/sketch -->
    <title>Artboard 2 Copy 2</title>
    <desc>Created with Sketch.</desc>
    <defs></defs>
    <g id="Page-1" stroke="none" stroke-width="1" fill="none" fill-rule="evenodd">
        <g id="Artboard-2-Copy-2">
            <g id="like-copy-2" transform="translate(0.000000, 2.000000)" fill="#F5A623" opacity="0.686742071">
                <path d="M23.2876701,6.26199193 C22.9471753,2.63319888 20.2945464,0.000434377909 16.9748349,0.000434377909 C14.7631892,0.000434377909 12.7381652,1.15283897 11.5986967,2.99981384 C10.4695461,1.12894818 8.52751491,0 6.35130943,0 C3.03204653,0 0.378968976,2.63276451 0.0389228513,6.26155756 C0.0120062715,6.421843 -0.0983517057,7.2654049 0.237208323,8.64107974 C0.72080954,10.625318 1.8378476,12.4301582 3.46674929,13.8592616 L11.5933133,21 L19.859395,13.8596959 C21.4882967,12.4301582 22.6053348,10.6257524 23.088936,8.64107974 C23.424496,7.26583928 23.314138,6.42227738 23.2876701,6.26199193 L23.2876701,6.26199193 Z M22.215493,8.44213466 C21.7740611,10.2543593 20.7507824,11.9054297 19.2591553,13.213776 L11.5986967,19.8315234 L4.06968068,13.2155135 C2.57536189,11.904561 1.55253186,10.2539249 1.11065134,8.44170028 C0.793035696,7.13986969 0.923581108,6.40446789 0.924029718,6.39968973 L0.930758863,6.35581756 C1.22235514,3.17660565 3.50174084,0.868755818 6.35130943,0.868755818 C8.45394292,0.868755818 10.3049064,2.11976419 11.1832841,4.1331058 L11.5964536,5.08135278 L12.0096231,4.1331058 C12.8740939,2.15060503 14.8228543,0.869190195 16.9752835,0.869190195 C19.8244035,0.869190195 22.1042378,3.17704002 22.401666,6.39751784 C22.4025632,6.40446789 22.5331086,7.14030406 22.215493,8.44213466 L22.215493,8.44213466 Z" id="Shape"></path>
            </g>
            <path d="M12,6 L9,3 L6,2 L2,4 L1,6 C1,6 0,8.5 0,9 C0,9.5 1,10 1,10 L1,12 L4,16 C4,16 8.23580078,19.1768506 10.3537012,20.7652759 C10.9024674,21.1768506 11.4317342,21.9435784 12,22 C12.5682658,22.0564216 12.7227236,21.357579 13.0840854,21.0363685 C15.7227236,18.6909124 21,14 21,14 L23,10 L22,5 L19,3 C19,3 18,2 17,2 C16,2 14,3 14,3 L12,5 L12,6 Z" id="Path-2" fill="#F8C268"></path>
        </g>
    </g>
</svg>