<?xml version="1.0" encoding="UTF-8"?>
<svg width="28px" height="28px" viewBox="0 0 28 28" version="1.1" xmlns="http://www.w3.org/2000/svg" xmlns:xlink="http://www.w3.org/1999/xlink">
    <!-- Generator: Sketch 39.1 (31720) - http://www.bohemiancoding.com/sketch -->
    <title>Artboard 2 Copy</title>
    <desc>Created with Sketch.</desc>
    <defs></defs>
    <g id="Page-1" stroke="none" stroke-width="1" fill="none" fill-rule="evenodd">
        <g id="Artboard-2-Copy" fill="#F5A623">
            <g id="users-copy" transform="translate(0.000000, 1.000000)">
                <g id="Capa_1">
                    <path d="M25.6732,20.1448929 L21.2151333,17.9274643 C20.7946667,17.7180714 20.5333333,17.2974286 20.5333333,16.8294286 L20.5333333,15.2596786 C20.6402,15.1296786 20.7526667,14.9815714 20.8688667,14.8181429 C21.4470667,14.0056429 21.9104667,13.1012143 22.2474,12.12575 C22.9058667,11.8253571 23.3333333,11.1776786 23.3333333,10.4464286 L23.3333333,8.58928571 C23.3333333,8.14217857 23.1653333,7.709 22.8666667,7.37053571 L22.8666667,4.901 C22.8928,4.64564286 22.9954667,3.12557143 21.8904,1.87153571 C20.9318667,0.783714286 19.3764667,0.232142857 17.2666667,0.232142857 C15.1568667,0.232142857 13.6014667,0.783714286 12.6429333,1.87107143 C11.9732667,2.63110714 11.7478667,3.48725 11.6797333,4.10196429 C10.8798667,3.69060714 9.9372,3.48214286 8.86666667,3.48214286 C4.01846667,3.48214286 3.73613333,7.59339286 3.73333333,7.66071429 L3.73333333,9.78667857 C3.43093333,10.1144643 3.26666667,10.4928571 3.26666667,10.8684643 L3.26666667,12.4721071 C3.26666667,12.9730714 3.49206667,13.4401429 3.87846667,13.7558571 C4.26346667,15.1997857 5.21033333,16.2908571 5.579,16.6738929 L5.579,17.9474286 C5.579,18.3128214 5.37926667,18.6480357 5.03253333,18.8365357 L1.9278,20.774 C0.738733333,21.4193571 0,22.6576071 0,24.0049643 L0,25.7678571 L6.53333333,25.7678571 L7.46666667,25.7678571 L28,25.7678571 L28,23.89075 C28,22.2945357 27.1082,20.8589643 25.6732,20.1448929 L25.6732,20.1448929 Z M6.53333333,23.8002143 L6.53333333,24.8392857 L0.933333333,24.8392857 L0.933333333,24.0049643 C0.933333333,22.9974643 1.48586667,22.0716786 2.39913333,21.5753571 L5.5034,19.6378929 C6.12546667,19.3003571 6.51186667,18.6531429 6.51186667,17.9474286 L6.51186667,16.2801786 L6.36346667,16.1422857 C6.35133333,16.1311429 5.1114,14.9657857 4.74506667,13.3774643 L4.7026,13.1936071 L4.543,13.0914643 C4.32833333,12.9531071 4.2,12.7214286 4.2,12.4721071 L4.2,10.8684643 C4.2,10.7013214 4.31433333,10.5026071 4.51313333,10.3233929 L4.66666667,10.1855 L4.66573333,7.68764286 C4.67413333,7.55439286 4.91726667,4.41071429 8.86666667,4.41071429 C9.9834,4.41071429 10.9237333,4.66746429 11.6666667,5.174 L11.6666667,7.37053571 C11.368,7.709 11.2,8.14217857 11.2,8.58928571 L11.2,10.4464286 C11.2,10.5875714 11.2163333,10.7263929 11.2471333,10.8610357 C11.2597333,10.9148929 11.2849333,10.9641071 11.3022,11.0161071 C11.3278667,11.0941071 11.3484,11.1744286 11.3843333,11.24825 C11.3848,11.2491786 11.3852667,11.2496429 11.3857333,11.2505714 C11.5052,11.4957143 11.6792667,11.7148571 11.8986,11.8898929 C11.9009333,11.8987143 11.9037333,11.9066071 11.9060667,11.9149643 C11.9340667,12.0212857 11.9634667,12.1271429 11.9952,12.2306786 L12.033,12.3518571 C12.0395333,12.3732143 12.0474667,12.3950357 12.0544667,12.4163929 C12.0708,12.4665357 12.0866667,12.5162143 12.1034667,12.5654286 C12.1314667,12.6466786 12.1608667,12.7307143 12.1949333,12.8221786 C12.2094,12.86025 12.2252667,12.8946071 12.2402,12.9322143 C12.2784667,13.02925 12.3167333,13.1230357 12.3568667,13.2158929 C12.3666667,13.2381786 12.3750667,13.2623214 12.3848667,13.2841429 L12.411,13.3426429 C12.4231333,13.3695714 12.4357333,13.3937143 12.4478667,13.4201786 C12.4936,13.5195357 12.5384,13.6156429 12.5850667,13.7085 C12.5925333,13.7233571 12.5995333,13.7396071 12.607,13.7544643 C12.6364,13.8125 12.6658,13.8672857 12.6952,13.923 C12.7456,14.0186429 12.7950667,14.1087143 12.8445333,14.196 C12.8688,14.2387143 12.8926,14.2805 12.9164,14.3208929 C12.9836,14.4351071 13.0475333,14.5400357 13.1096,14.6375357 C13.1231333,14.6584286 13.1362,14.68025 13.1492667,14.7002143 C13.2622,14.8743214 13.3602,15.0154643 13.4414,15.1255 C13.4628667,15.15475 13.4815333,15.1798214 13.4997333,15.2044286 C13.51,15.2178929 13.524,15.2373929 13.5328667,15.2494643 L13.5328667,16.7857857 C13.5328667,17.2352143 13.2864667,17.6475 12.8902667,17.8629286 L11.6554667,18.5328929 L11.4403333,18.5138571 L11.3526,18.69725 L8.72713333,20.1221429 C7.3738,20.8575714 6.53333333,22.2662143 6.53333333,23.8002143 L6.53333333,23.8002143 Z M27.0666667,24.8392857 L7.46666667,24.8392857 L7.46666667,23.8002143 C7.46666667,22.6065357 8.12093333,21.5094286 9.1742,20.9383571 L13.3373333,18.6791429 C14.0340667,18.30075 14.4666667,17.5750714 14.4666667,16.78625 L14.4666667,14.92075 L14.4666667,14.9202857 L14.3761333,14.8125714 L14.3584,14.7916786 C14.3574667,14.7902857 14.3285333,14.7554643 14.2814,14.6941786 C14.2786,14.6904643 14.2758,14.68675 14.2725333,14.6830357 C14.2478,14.651 14.2188667,14.6124643 14.1857333,14.5665 C14.1852667,14.5655714 14.1848,14.5651071 14.1843333,14.5641786 C14.1148,14.4680714 14.0275333,14.3431786 13.9304667,14.19275 C13.9281333,14.1895 13.9262667,14.1857857 13.9239333,14.1825357 C13.8782,14.1115 13.8296667,14.0339643 13.7802,13.9517857 C13.7764667,13.94575 13.7727333,13.9397143 13.769,13.9332143 C13.6635333,13.75725 13.5515333,13.5580714 13.44,13.3375357 C13.44,13.3375357 13.4395333,13.3370714 13.4395333,13.3366071 C13.3802667,13.2182143 13.321,13.0937857 13.2631333,12.96425 L13.2631333,12.96425 C13.2552,12.9461429 13.2468,12.9285 13.2388667,12.9103929 L13.2388667,12.9103929 C13.2132,12.8523571 13.1875333,12.7915357 13.1614,12.7288571 C13.1520667,12.7061071 13.1427333,12.6824286 13.1334,12.6592143 C13.1091333,12.5983929 13.0844,12.5371071 13.0582667,12.467 C13.0106667,12.3407143 12.9658667,12.2088571 12.9229333,12.0728214 L12.8972667,11.9901786 C12.8944667,11.9808929 12.8912,11.9716071 12.8884,11.9618571 C12.8445333,11.8151429 12.8025333,11.6651786 12.7670667,11.5110357 L12.7246,11.3271786 L12.5654667,11.2250357 C12.2948,11.0513929 12.1333333,10.7602857 12.1333333,10.4464286 L12.1333333,8.58928571 C12.1333333,8.32882143 12.2444,8.086 12.446,7.90446429 L12.6,7.76657143 L12.6,4.875 L12.6,4.71064286 L12.5874,4.70089286 C12.5715333,4.36567857 12.5916,3.33821429 13.3448,2.48346429 C14.1180667,1.6055 15.4378,1.16071429 17.2666667,1.16071429 C19.089,1.16071429 20.4059333,1.60225 21.1801333,2.47371429 C22.0887333,3.49560714 21.9384667,4.80303571 21.9375333,4.81417857 L21.9333333,7.76657143 L22.0873333,7.90492857 C22.2889333,8.086 22.4,8.32882143 22.4,8.58928571 L22.4,10.4464286 C22.4,10.85175 22.1330667,11.2064643 21.7364,11.3281071 L21.504,11.3991429 L21.4293333,11.6289643 C21.1171333,12.5951429 20.6724,13.4875 20.1068,14.2814286 C19.9682,14.4768929 19.8333333,14.6500714 19.7162,14.7823929 L19.6,14.91425 L19.6,16.8294286 C19.6,17.6512143 20.0587333,18.3898929 20.7974667,18.7576071 L25.2555333,20.9750357 C26.3727333,21.5307857 27.0666667,22.6478571 27.0666667,23.89075 L27.0666667,24.8392857 L27.0666667,24.8392857 Z" id="Shape"></path>
                </g>
            </g>
        </g>
    </g>
</svg>